<svg aria-hidden="true" style="position: absolute; width: 0; height: 0; overflow: hidden;" version="1.1" xmlns="http://www.w3.org/2000/svg" xmlns:xlink="http://www.w3.org/1999/xlink">
<defs>
<symbol id="icon-star" viewBox="0 0 32 32">
<path fill="#f1e044" style="fill: var(--color1, #f1e044)" d="M16 0l5.267 8.752 9.949 2.304-6.693 7.712 0.88 10.176-9.403-3.984-9.405 3.984 0.883-10.176-6.693-7.712 9.949-2.304 5.267-8.752z"></path>
</symbol>
<symbol id="icon-logo" viewBox="0 0 23 32">
<path d="M22.253 15.071c-0.125-1.318-0.519-2.507-1.184-3.544-0.706-1.124-1.495-1.794-2.284-2.204-1.288-0.648-2.617-0.583-3.78-0.562-5.254 0.108-6.604-3.090-7.289-4.992 1.495 2.593 3.509 3.955 5.586 3.501-1.723-8.578-9.512-6.677-9.512-6.677 0.644 6.396 2.762 9.378 7.767 10.026 1.038 0.13 2.222 0.173 3.531 0.108 1.744-0.086 3.115-0.152 4.424 1.901 0.997 1.556 1.204 3.76 0.54 6.158-0.041 0.13-0.083 0.281-0.124 0.411-1.184 3.846-4.278 7.411-8.245 9.486-5.524-2.853-8.452-7.39-8.93-10.696-0.166-1.232-0.104-2.982 1.225-4.213 2.368-2.204 4.569-0.216 6.625 1.988 0.145 0.173 0.291 0.303 0.415 0.432 0.145 0.151 0.333 0.237 0.519 0.259v0.022c0.187-0.022 0.374-0.13 0.519-0.259l0.416-0.432c1.599-1.707 3.26-3.263 5.026-2.895-1.205-1.383-3.676-1.102-5.96 1.102v-0.021c-1.744-1.859-5.192-4.992-8.785-1.664-1.516 1.426-2.16 3.544-1.827 5.964 0.664 4.689 4.839 9.659 10.384 12.381 0.124 0.065 0.269 0.086 0.395 0.086 0.145 0 0.269-0.021 0.395-0.086 4.839-2.377 8.494-6.613 9.761-11.344 0-0.043 0.021-0.064 0.021-0.108 0.165-0.58 0.297-1.271 0.37-1.979l0.004-0.053c0.083-0.735 0.083-1.426 0-2.096z"></path>
</symbol>
<symbol id="icon-ic_twitter" viewBox="0 0 32 32">
<path fill="#545454" style="fill: var(--color2, #545454)" d="M16 0c-8.836 0-16 7.164-16 16s7.164 16 16 16 16-7.164 16-16-7.164-16-16-16zM23.305 12.475c0.007 0.158 0.011 0.316 0.011 0.475 0 4.853-3.694 10.448-10.449 10.448-2.074 0-4.004-0.608-5.629-1.65 0.287 0.034 0.58 0.051 0.876 0.051 1.721 0 3.304-0.587 4.561-1.572-1.6-0.032-2.948-1.081-3.423-2.526l-0.007-0.026c0.209 0.042 0.449 0.067 0.695 0.067 0.343 0 0.675-0.047 0.989-0.135l-0.026 0.006c-1.692-0.351-2.946-1.829-2.946-3.6v-0.047c0.496 0.275 1.061 0.441 1.664 0.459-0.991-0.667-1.635-1.785-1.635-3.054 0-0.001 0-0.002 0-0.003v0c0-0.673 0.182-1.303 0.498-1.846 1.819 2.226 4.51 3.679 7.544 3.836l0.025 0.001c-0.062-0.252-0.097-0.542-0.097-0.84 0-2.028 1.644-3.673 3.673-3.673 1.057 0 2.010 0.447 2.68 1.162l0.002 0.002c0.88-0.177 1.661-0.486 2.366-0.91l-0.033 0.019c-0.285 0.866-0.856 1.571-1.599 2.022l-0.016 0.009c0.782-0.095 1.494-0.298 2.155-0.597l-0.046 0.019c-0.503 0.746-1.11 1.376-1.811 1.887l-0.021 0.015z"></path>
</symbol>
<symbol id="icon-ic_instagram" viewBox="0 0 32 32">
<path fill="#545454" style="fill: var(--color2, #545454)" d="M19.063 16c0 1.692-1.371 3.063-3.063 3.063s-3.063-1.371-3.063-3.063v0c0-1.691 1.371-3.063 3.063-3.063s3.063 1.371 3.063 3.063v0z"></path>
<path fill="#545454" style="fill: var(--color2, #545454)" d="M23.162 10.581c-0.156-0.414-0.39-0.767-0.687-1.055l-0.001-0.001c-0.289-0.298-0.642-0.532-1.036-0.681l-0.020-0.007c-0.324-0.126-0.811-0.275-1.707-0.316-0.969-0.044-1.259-0.054-3.712-0.054s-2.744 0.009-3.712 0.053c-0.896 0.041-1.383 0.191-1.707 0.316-0.414 0.156-0.767 0.39-1.055 0.687l-0.001 0.001c-0.306 0.297-0.54 0.657-0.688 1.056-0.126 0.324-0.275 0.811-0.316 1.707-0.044 0.969-0.053 1.259-0.053 3.712s0.009 2.744 0.053 3.713c0.041 0.896 0.191 1.382 0.316 1.707 0.147 0.398 0.382 0.759 0.687 1.056 0.289 0.298 0.642 0.532 1.037 0.68l0.020 0.006c0.324 0.126 0.811 0.276 1.707 0.316 0.968 0.044 1.259 0.053 3.712 0.053s2.744-0.009 3.712-0.053c0.896-0.041 1.383-0.191 1.707-0.316 0.804-0.316 1.428-0.94 1.736-1.723l0.007-0.021c0.125-0.324 0.275-0.81 0.316-1.706 0.044-0.969 0.053-1.259 0.053-3.712s-0.009-2.745-0.053-3.713c-0.041-0.896-0.191-1.382-0.316-1.706zM16 20.718c-2.605 0-4.718-2.112-4.718-4.718s2.112-4.718 4.718-4.718v0c2.605 0 4.718 2.112 4.718 4.718s-2.112 4.718-4.718 4.718v0zM20.905 12.198c-0.609 0-1.103-0.494-1.103-1.103s0.494-1.103 1.103-1.103v0c0.609 0 1.102 0.493 1.102 1.102s-0.493 1.102-1.102 1.102v0z"></path>
<path fill="#545454" style="fill: var(--color2, #545454)" d="M16 0c-8.836 0-16 7.164-16 16s7.164 16 16 16 16-7.164 16-16-7.164-16-16-16zM25.132 19.788c-0.045 0.978-0.2 1.645-0.427 2.23-0.488 1.238-1.45 2.2-2.656 2.676l-0.032 0.011c-0.583 0.227-1.252 0.382-2.229 0.427-0.98 0.045-1.293 0.055-3.788 0.055s-2.808-0.011-3.788-0.055c-0.978-0.045-1.646-0.2-2.23-0.427-0.637-0.244-1.18-0.604-1.626-1.059l-0.001-0.001c-0.456-0.448-0.816-0.991-1.049-1.598l-0.010-0.031c-0.228-0.583-0.383-1.252-0.427-2.229-0.045-0.98-0.056-1.293-0.056-3.788s0.011-2.808 0.055-3.788c0.045-0.978 0.199-1.646 0.427-2.23 0.244-0.637 0.604-1.179 1.059-1.626l0.001-0.001c0.448-0.456 0.991-0.816 1.598-1.049l0.031-0.010c0.584-0.228 1.252-0.383 2.229-0.427 0.98-0.045 1.293-0.055 3.788-0.055s2.808 0.011 3.788 0.055c0.978 0.045 1.645 0.2 2.23 0.427 0.637 0.244 1.179 0.604 1.626 1.059l0.001 0.001c0.456 0.448 0.816 0.991 1.049 1.598l0.010 0.031c0.228 0.584 0.383 1.252 0.427 2.229 0.045 0.98 0.055 1.293 0.055 3.788s-0.011 2.808-0.055 3.788z"></path>
</symbol>
<symbol id="icon-ic_facebook" viewBox="0 0 32 32">
<path fill="#545454" style="fill: var(--color2, #545454)" d="M16 0c-8.836 0-16 7.164-16 16s7.164 16 16 16 16-7.164 16-16-7.164-16-16-16zM22.104 8.148l-2.213 0.001c-1.735 0-2.071 0.825-2.071 2.034v2.669h4.138l-0.002 4.178h-4.136v10.724h-4.316v-10.723h-3.608v-4.178h3.608v-3.082c0-3.577 2.185-5.525 5.376-5.525l3.224 0.005v3.898z"></path>
</symbol>
<symbol id="icon-caret-right" viewBox="0 0 19 32">
<path stroke-linejoin="round" stroke-linecap="round" stroke-miterlimit="4" stroke-width="3.3684" d="M16.211 2.843l-13.159 13.157 13.159 13.159"></path>
</symbol>
<symbol id="icon-caret-left" viewBox="0 0 19 32">
<path fill="none" stroke-linejoin="round" stroke-linecap="round" stroke-miterlimit="4" stroke-width="3.3684" d="M2.316 2.843l13.159 13.157-13.159 13.159"></path>
</symbol>
</defs>
</svg>
